<?xml version="1.0" standalone="no"?>
<!DOCTYPE svg PUBLIC "-//W3C//DTD SVG 20010904//EN"
 "http://www.w3.org/TR/2001/REC-SVG-20010904/DTD/svg10.dtd">
<svg version="1.0" xmlns="http://www.w3.org/2000/svg"
 width="500.000000pt" height="500.000000pt" viewBox="0 0 500.000000 500.000000"
 preserveAspectRatio="xMidYMid meet">
<metadata>
Created by potrace 1.14, written by Peter Selinger 2001-2017
</metadata>
<g transform="translate(0.000000,500.000000) scale(0.100000,-0.100000)"
fill="#000000" stroke="none">
<path d="M800 2651 l0 -480 -26 -20 -27 -21 27 0 26 0 0 -89 c0 -72 3 -90 16
-95 28 -11 822 -7 829 4 4 7 -137 10 -414 10 l-421 0 0 91 c0 87 1 93 29 125
16 18 49 66 72 106 24 40 44 75 45 77 2 2 21 -4 44 -13 88 -35 236 -8 352 63
45 28 48 29 48 10 0 -27 27 -35 49 -15 18 16 19 16 25 -8 9 -35 33 -56 64 -56
16 0 71 27 131 65 58 36 108 65 113 65 5 0 6 -28 2 -63 -5 -52 -3 -66 11 -80
28 -29 59 -19 151 46 49 35 94 66 100 69 6 4 5 -15 -4 -50 -13 -50 -13 -61 -1
-87 25 -52 49 -44 142 43 70 66 131 112 150 112 2 0 -3 -26 -10 -57 -22 -87 2
-134 60 -119 12 3 65 45 116 92 l95 87 7 -28 c12 -42 48 -75 82 -75 16 0 62
18 101 39 81 45 176 84 176 73 0 -25 -46 -122 -70 -147 -62 -65 -59 -125 6
-125 49 0 112 61 163 160 38 73 44 79 88 94 63 21 73 20 73 -8 0 -36 46 -86
79 -86 15 0 66 20 114 45 48 25 104 52 126 60 l38 13 -5 -44 c-5 -48 7 -57 39
-28 16 14 18 14 24 -8 25 -80 73 -77 205 12 30 20 69 45 87 54 l32 16 -1 -35
c-2 -50 15 -64 51 -44 l28 17 -14 -47 c-17 -53 -11 -117 11 -139 14 -15 15
-13 6 17 -18 65 20 178 89 265 17 21 31 43 31 47 0 22 -24 3 -94 -73 -70 -76
-76 -81 -76 -55 0 15 9 46 21 68 11 23 18 43 16 45 -9 9 -35 -8 -47 -30 -6
-13 -28 -31 -48 -41 -21 -9 -74 -39 -119 -67 -46 -27 -95 -50 -110 -51 -25 -2
-28 2 -31 31 -2 20 5 50 18 74 11 22 20 41 18 42 -39 24 -62 25 -91 7 -18 -10
-50 -24 -72 -31 -22 -7 -83 -35 -136 -61 -53 -27 -105 -49 -117 -49 -27 0 -44
31 -40 73 2 26 8 32 33 37 65 14 100 61 55 75 -24 8 -87 -21 -101 -46 -5 -10
-26 -23 -47 -28 -90 -24 -93 -24 -86 -8 9 24 -14 57 -40 57 -13 0 -31 -9 -41
-20 -10 -11 -20 -18 -22 -16 -8 8 100 212 179 339 44 71 77 131 74 134 -14 15
-131 -166 -219 -337 l-69 -134 -67 -27 c-36 -14 -98 -43 -138 -64 -52 -28 -78
-36 -97 -31 -29 7 -42 41 -32 81 5 19 13 25 35 25 16 0 40 11 56 26 28 26 28
27 9 41 -28 21 -63 8 -114 -42 -48 -47 -141 -131 -203 -183 -21 -18 -47 -32
-59 -32 -19 0 -20 4 -15 54 8 75 65 193 137 283 77 95 169 231 211 312 25 47
30 64 21 73 -9 9 -19 4 -42 -22 -96 -111 -187 -248 -279 -420 -47 -88 -54 -97
-105 -123 -29 -16 -86 -57 -125 -93 -40 -35 -78 -64 -86 -64 -28 0 -18 72 20
146 19 38 35 75 35 82 0 20 -18 14 -36 -13 -9 -14 -46 -46 -83 -72 -175 -124
-194 -132 -206 -93 -10 32 21 133 78 253 50 104 158 290 175 301 4 3 59 -4
122 -15 159 -28 330 -17 330 21 0 4 -14 1 -32 -8 -54 -26 -281 -18 -391 14
-17 5 -16 7 3 38 24 39 25 46 6 46 -7 0 -24 -16 -37 -35 -21 -31 -28 -35 -53
-30 -106 20 -218 26 -286 16 -95 -15 -159 -48 -129 -67 6 -3 14 -2 18 4 24 39
194 62 325 43 44 -6 82 -13 84 -15 2 -3 -30 -59 -71 -125 -40 -66 -91 -158
-113 -206 l-38 -85 -128 -71 c-72 -40 -135 -69 -143 -65 -19 7 -19 72 0 106
20 35 18 45 -10 58 -37 17 -37 17 -107 -42 -126 -107 -288 -159 -387 -125 -17
6 -31 14 -31 17 1 4 22 17 48 29 86 40 305 224 283 237 -6 4 -48 -28 -93 -70
-81 -76 -191 -155 -235 -168 -26 -8 -33 -29 82 224 62 136 131 253 177 301 23
24 32 39 23 39 -21 0 -81 -63 -123 -129 -20 -31 -75 -139 -122 -241 l-86 -185
-34 0 c-43 0 -54 -29 -15 -42 l25 -8 -45 -77 c-24 -42 -49 -79 -55 -83 -7 -4
-10 147 -10 459 l0 466 1690 0 1690 0 0 -580 0 -580 -421 0 c-277 0 -418 -3
-414 -10 7 -11 801 -15 829 -4 14 6 16 67 16 595 l0 589 -1700 0 -1700 0 0
-479z m1864 262 c-36 -64 -137 -211 -170 -248 l-26 -30 28 50 c44 80 179 275
191 275 3 0 -7 -21 -23 -47z m36 -398 c-7 -8 -20 -15 -29 -15 -13 1 -13 3 3
15 26 19 42 19 26 0z m620 0 c-7 -8 -20 -15 -29 -15 -13 1 -13 3 3 15 26 19
42 19 26 0z m-1839 -48 c-12 -19 -28 -40 -36 -47 -24 -20 -19 12 7 46 42 55
63 55 29 1z m1589 11 c0 -29 -6 -36 -50 -60 -60 -34 -64 -34 -50 -7 16 28 80
99 91 99 5 0 9 -15 9 -32z m590 19 c0 -15 -60 -90 -67 -83 -6 6 15 47 40 74
24 25 27 27 27 9z m-610 -93 c0 -22 -70 -130 -102 -160 -42 -38 -80 -43 -86
-11 -4 22 38 87 56 87 7 0 15 7 19 16 3 9 26 29 51 45 45 29 62 35 62 23z
m-2126 -25 c-7 -11 -34 -12 -34 -1 0 14 11 21 26 15 8 -3 11 -9 8 -14z"/>
<path d="M2140 2571 c0 -5 5 -13 10 -16 6 -3 10 -2 10 4 0 5 -4 13 -10 16 -5
3 -10 2 -10 -4z"/>
<path d="M2065 1950 c0 -78 19 -78 23 0 1 43 -2 60 -10 60 -9 0 -13 -19 -13
-60z"/>
<path d="M2128 1998 c16 -16 15 -80 0 -98 -7 -8 -3 -6 10 4 35 30 26 106 -12
106 -6 0 -5 -5 2 -12z"/>
<path d="M2225 1950 c0 -33 4 -60 10 -60 6 0 10 27 10 60 0 33 -4 60 -10 60
-6 0 -10 -27 -10 -60z"/>
<path d="M2285 2000 c3 -5 8 -10 11 -10 2 0 4 5 4 10 0 6 -5 10 -11 10 -5 0
-7 -4 -4 -10z"/>
<path d="M2355 1996 c-7 -15 -1 -25 25 -47 22 -18 31 -33 26 -44 -3 -9 -2 -13
4 -10 18 11 10 44 -14 61 -14 8 -27 25 -29 37 -3 21 -4 21 -12 3z"/>
<path d="M2406 1995 c4 -8 8 -15 10 -15 2 0 4 7 4 15 0 8 -4 15 -10 15 -5 0
-7 -7 -4 -15z"/>
<path d="M2485 1950 c0 -33 4 -60 10 -60 6 0 10 27 10 60 0 33 -4 60 -10 60
-6 0 -10 -27 -10 -60z"/>
<path d="M2576 1988 c-21 -29 -20 -51 2 -75 9 -10 14 -14 10 -9 -12 16 -9 81
4 94 7 7 9 12 6 12 -4 0 -14 -10 -22 -22z"/>
<path d="M2651 1994 c0 -11 3 -14 6 -6 3 7 2 16 -1 19 -3 4 -6 -2 -5 -13z"/>
<path d="M2763 1949 c23 -33 43 -56 45 -50 5 14 -61 111 -75 111 -7 0 7 -27
30 -61z"/>
<path d="M2873 1994 c-3 -9 6 -28 24 -47 17 -18 28 -38 25 -46 -3 -8 0 -11 7
-7 20 13 11 44 -20 66 -17 13 -28 28 -25 36 3 8 3 14 0 14 -2 0 -7 -7 -11 -16z"/>
<path d="M2926 1995 c4 -8 8 -15 10 -15 2 0 4 7 4 15 0 8 -4 15 -10 15 -5 0
-7 -7 -4 -15z"/>
<path d="M2640 1920 c0 -11 5 -20 10 -20 6 0 10 9 10 20 0 11 -4 20 -10 20 -5
0 -10 -9 -10 -20z"/>
<path d="M2350 1910 c0 -11 4 -20 9 -20 5 0 7 9 4 20 -3 11 -7 20 -9 20 -2 0
-4 -9 -4 -20z"/>
<path d="M2870 1905 c0 -8 4 -15 10 -15 5 0 7 7 4 15 -4 8 -8 15 -10 15 -2 0
-4 -7 -4 -15z"/>
<path d="M2285 1900 c-3 -5 -1 -10 4 -10 6 0 11 5 11 10 0 6 -2 10 -4 10 -3 0
-8 -4 -11 -10z"/>
</g>
</svg>
